<?xml version="1.0" encoding="UTF-8"?>
<svg xmlns="http://www.w3.org/2000/svg" viewBox="275 0 185 270" width="32" height="32">
  <!-- Orange rounded background -->
  <rect x="275" y="0" width="185" height="270" rx="46" fill="#fa5b30"/>
  <!-- Fox icon – original paths from FuxiConnect Logo, all recolored white -->
  <path fill="white" d="M438.74,126.99c-6.63.89-10.82,3.78-19.05,3.33-22.55-1.24-38.58-14.77-67.57-13.56-15.11.63-29.64,5.6-41.34,15.17-6.01,4.92-10.76,10.7-13.58,18.2,5.65-2.61,10.61-4.73,16.48-5.24.36,1.32-.81,1.7-1.12,2.41-5.31,1.38-14.51,8.39-18.83,12.53-.54.51-1.63.66-1.93.13-.18-.31-.48-1-.49-1.6-.5-16.61,6.64-31.19,19.2-42.64-16.33,6.13-27.02,21.49-28.55,38.38-.86,9.47,1.17,18.89,4.91,27.42,3.81-4.02,6.04-8.28,10.82-11.32.43,15.11,6.84,27.89,17.57,37.79,11.89,10.97,30.61,17.34,46.22,11.83-4.44-.68-7.9-1.06-11.74-2.56-7.52-2.95-12.35-9.67-13.68-17.88-1.56-9.62,1.56-19.16,6.88-27.23,2.49-3.77,4.89-7.51,9.13-10.02-7.53,25.23,6.21,45.97,29.78,53.86-1.52,2.83-3.52,4.05-5.37,5.86-10.4,10.21-26.88,13.77-40.98,11.88-11.86-1.59-22.99-5.84-32.67-12.67-12.27-8.66-11.84-10.56-21.88-21.86,2.22,15.57,11.84,28.14,24.55,36.4,5.45,3.54,11.33,5.72,17.64,7.47,7.26,2.01,14.58,2.17,21.84,2.45-2.04,3.12-10.04,5.54-11.66,7.46-17.55-1.26-34.36-8.07-47.91-19.63-16.87-14.4-27.83-34.54-28.67-56.9-.49-12.86,2.6-24.83,7.22-36.94-6.39,2.15-11.02,6.24-16.51,10.68,4.57-24.47,18.82-49.57,38.38-66-11.08-21.64-10.69-45.11-2.37-67.48,1.04-2.81,15.7,10.52,16.8,11.53l8.54,7.85,29.85,28.86c-.36-4.23-5.86-10.63-5.41-14.17,7.76.32,14.85,2.61,22.11,4.67,7.73,2.19,14.22,5.72,20.58,10.38,7.01,5.13,11.51,11.41,15.39,19.19,4.98,9.98,21.29,22.39,31.68,25.74l12.39,4c.06,4.56,1.98,8.33,3.35,12.25ZM314.77,66.9l-6.32-5.86c-9.05-7.32-15.23-16.54-19.88-27.57-3.98,14.45.33,34.09,10.79,44.42,5.93-2.15,11.45-5.62,15.42-10.98ZM386.35,99.58c-2.01-3.36-3.75-6.14-5.85-9.02-5.3-7.29-15.65-6.68-22.12-1.24,3.01,1.3,6.39.35,8.66,2.34,1.98,1.73,3.09,4.34,5.49,5.71,4.32,2.47,7.64,1.07,13.82,2.22Z"/>
  <!-- Dark detail layer – semi-transparent white for depth -->
  <path fill="rgba(0,0,0,0.18)" d="M344.97,245.51c-7.25-.28-14.58-.44-21.84-2.45-6.31-1.75-12.18-3.92-17.64-7.47-12.71-8.26-22.33-20.83-24.55-36.4,10.04,11.3,9.61,13.2,21.88,21.86,9.68,6.83,20.81,11.09,32.67,12.67,14.1,1.89,30.57-1.67,40.98-11.88,1.85-1.81,3.85-3.03,5.37-5.86-23.56-7.89-37.31-28.63-29.78-53.86-4.25,2.51-6.65,6.25-9.13,10.02-5.32,8.07-8.44,17.62-6.88,27.23,1.34,8.21,6.16,14.93,13.68,17.88,3.84,1.5,7.3,1.88,11.74,2.56-15.61,5.51-34.33-.87-46.22-11.83-10.73-9.9-17.15-22.67-17.57-37.79-4.78,3.04-7.01,7.3-10.82,11.32-3.74-8.53-5.77-17.95-4.91-27.42,1.53-16.89,12.22-32.25,28.55-38.38-12.56,11.45-19.69,26.03-19.2,42.64.02.6.31,1.29.49,1.6.3.53,1.39.38,1.93-.13,4.32-4.15,13.52-11.16,18.83-12.53-4.1,9.4-6.02,19.64-3.69,29.99,2.32,10.32,7.76,19.57,16.92,25.88-3.25-19.6,4.81-38.62,20.9-49.82,9.33-6.49,20-10.19,31.5-10.09l29.72.25c11.52.1,22.76-3.87,30.16-12.47,1.51-1.75,1.16-2.61.66-4.03-1.38-3.92-3.29-7.69-3.35-12.25l-12.39-4c-10.38-3.35-26.7-15.76-31.68-25.74-3.88-7.78-8.38-14.06-15.39-19.19-6.35-4.65-12.84-8.18-20.58-10.38-7.26-2.06-14.35-4.35-22.11-4.67-.45,3.54,5.05,9.94,5.41,14.17l-29.85-28.86-8.54-7.85c-1.1-1.01-15.76-14.34-16.8-11.53-8.32,22.37-8.71,45.84,2.37,67.48-19.57,16.42-33.82,41.53-38.38,66,5.5-4.44,10.12-8.53,16.51-10.68-4.62,12.12-7.71,24.09-7.22,36.94.85,22.36,11.8,42.51,28.67,56.9,13.55,11.56,30.36,18.37,47.91,19.63Z"/>
  <!-- White highlight -->
  <path fill="rgba(255,255,255,0.6)" d="M438.74,126.99c.5,1.42.85,2.28-.66,4.03-7.4,8.6-18.64,12.57-30.16,12.47l-29.72-.25c-11.49-.1-22.17,3.6-31.5,10.09-16.09,11.2-24.15,30.22-20.9,49.82-9.16-6.31-14.6-15.56-16.92-25.88-2.33-10.35-.41-20.58,3.69-29.99.31-.71,1.49-1.09,1.12-2.41-5.87.51-10.83,2.63-16.48,5.24,2.82-7.49,7.57-13.28,13.58-18.2,11.69-9.57,26.23-14.54,41.34-15.17,28.99-1.21,45.02,12.32,67.57,13.56,8.23.45,12.43-2.43,19.05-3.33Z"/>
</svg>
