<?xml version="1.0" encoding="UTF-8"?>
<svg id="Ebene_1" xmlns="http://www.w3.org/2000/svg" version="1.1" viewBox="0 0 32 32">
  <!-- Generator: Adobe Illustrator 30.2.1, SVG Export Plug-In . SVG Version: 2.1.1 Build 1)  -->
  <defs>
    <style>
      .st0, .st1 {
        fill: none;
      }

      .st1 {
        stroke: #2a3839;
        stroke-linecap: round;
        stroke-linejoin: round;
      }

      .st2 {
        fill: #fff;
      }

      .st3 {
        fill: #fa5b30;
      }

      .st4 {
        fill: #2a3839;
      }
    </style>
  </defs>
  <path class="st0" d="M12.2,14.2s0,0,0,0c-1.4,1.3-2.2,2.9-2.2,4.8,0,0,0,.1,0,.2,0,0,0,0,0,0,0,0,0-.1,0-.2,0-1.9.7-3.5,2.2-4.8Z"/>
  <path class="st0" d="M10.8,20.3s0,0,0,0c-.5.3-.8.8-1.2,1.3,0,0,0,0,0,0,.4-.5.7-.9,1.2-1.3Z"/>
  <path class="st0" d="M26.3,14.1s0,0,0,0l-1.4-.5c-.3,0-.6-.3-1-.5.3.2.7.4,1,.5l1.4.4Z"/>
  <path class="st0" d="M19.9,17.3c-1,0-1.9.2-2.7.6.8-.4,1.8-.7,2.7-.6h3.3c.6,0,1.3,0,1.9-.3-.6.2-1.2.3-1.9.3h-3.3Z"/>
  <path class="st0" d="M12.1,21.1c-.3-1.2,0-2.3.4-3.4,0,0,0,0,0,0,0,0,0,0,0,0-.5,1.1-.7,2.2-.4,3.4.3,1.2.9,2.2,1.9,2.9,0,0,0,0,0,0-1-.7-1.6-1.7-1.9-2.9Z"/>
  <path class="st0" d="M12.6,17.5c-.7,0-1.2.3-1.9.6,0-.2.2-.4.3-.6-.1.2-.2.4-.3.6.6-.3,1.2-.5,1.9-.6,0,0,0,.1,0,.2,0,0,0,0,0-.2Z"/>
  <path class="st0" d="M20.3,25.5s0,0,0,0c-1.3-.4-2.4-1.2-3-2.3.6,1,1.7,1.9,3,2.3Z"/>
  <path class="st0" d="M8.9,23.6c.6.6.8,1,1.1,1.3-.3-.3-.6-.7-1.1-1.3,0,0,0,0,0,0Z"/>
  <path class="st0" d="M15.9,20.5c.3-.4.5-.8,1-1.1,0,0,0,0,0,0-.5.3-.7.7-1,1.1-.6.9-.9,2-.8,3.1,0,.5.2.9.5,1.2-.3-.3-.4-.8-.5-1.2-.2-1.1.2-2.2.8-3.1Z"/>
  <path class="st0" d="M18,25.9s0,0,0,0c-1.8.6-3.9,0-5.2-1.3,0,0-.1-.1-.2-.2,0,0,.1.1.2.2,1.3,1.2,3.4,2,5.2,1.3Z"/>
  <path class="st0" d="M14.8,6.9c.9,0,1.7.3,2.5.5.2,0,.3.1.4.2-.2,0-.3-.1-.5-.2-.8-.2-1.6-.5-2.5-.5,0,.4.6,1.1.6,1.6h0c0-.5-.7-1.2-.6-1.6Z"/>
  <path class="st0" d="M18.6,11.5c.2.2.3.5.6.6.5.3.9.1,1.6.2h0c-.7-.1-1.1,0-1.6-.3-.3-.2-.4-.4-.6-.6-.3-.2-.6-.1-1-.3,0,0,0,0,0,0,.3.1.7,0,1,.3Z"/>
  <path class="st0" d="M9.8,4.9h0c.1.3.2.5.4.8-.1-.3-.3-.5-.4-.8Z"/>
  <path class="st0" d="M11,9.9s0,0,0,0c.7-.2,1.3-.6,1.7-1.2h0c-.4.6-1.1,1-1.7,1.2Z"/>
  <path class="st0" d="M9.5,10.6c-1.2-2.4-1.2-5.1-.3-7.6,0,0,.2,0,.3,0-.2,0-.3-.1-.3,0-.9,2.5-1,5.2.3,7.6-2.2,1.8-3.8,4.7-4.3,7.4,0,0,0,0,0,0,.5-2.8,2.1-5.6,4.3-7.4Z"/>
  <path class="st0" d="M6.2,21c0-1.4.3-2.8.8-4.2,0,0,0,0,0,0-.5,1.4-.9,2.7-.8,4.2,0,2.5,1.3,4.8,3.2,6.4.6.5,1.2.9,1.9,1.2-.7-.3-1.3-.7-1.9-1.2-1.9-1.6-3.1-3.9-3.2-6.4Z"/>
  <path class="st3" d="M8.9,23.6s0,0,0,0c.6.6.8,1,1.1,1.3,0,0,0,0,0,0,0,0,.1.1.2.2.3.2.6.5,1.1.9,1.1.8,2.3,1.2,3.7,1.4,1.6.2,3.4-.2,4.6-1.3.2-.2.4-.3.6-.7-1.3-.4-2.4-1.2-3-2.3-.6-1-.8-2.3-.4-3.8-.5.3-.7.7-1,1.1-.6.9-.9,2-.8,3.1,0,.5.2.9.5,1.2.3.3.6.6,1,.8.4.2.8.2,1.3.3,0,0,0,0,0,0,0,0,0,0,0,0-1.8.6-3.9,0-5.2-1.3,0,0-.1-.1-.2-.2-1.1-1.1-1.7-2.5-1.8-4.1-.5.3-.8.8-1.2,1.3,0,0,0,0,0,0,0,0,0,0,0,0-.4-1-.6-2-.6-3.1.2-1.9,1.4-3.6,3.2-4.3,0,0,0,0,0,0,0,0,0,0,0,0-1.4,1.3-2.2,2.9-2.2,4.8,0,0,0,.1,0,.2,0,0,.2,0,.2,0,.5-.5,1.5-1.3,2.1-1.4,0,0,0,0,0,0,0,0,0,0,0,0,0,0,0,0,0,0,0,0,0,0,0,0,0,0,0,0,0-.1,0,0,0,0,0-.2-.7,0-1.2.3-1.9.6,0-.2.2-.4.3-.6.3-.6.7-1,1.3-1.5,1.3-1.1,3-1.6,4.7-1.7,3.3-.1,5.1,1.4,7.6,1.5.9,0,1.4-.3,2.1-.4-.2-.4-.4-.9-.4-1.4l-1.4-.4c-.3,0-.6-.3-1-.5-1-.6-2.2-1.6-2.6-2.4-.4-.9-.9-1.6-1.7-2.2-.6-.4-1.2-.7-1.9-1-.2,0-.3-.1-.4-.2-.8-.2-1.6-.5-2.5-.5,0,.4.6,1.1.6,1.6h0s0,0,0,0l-3.4-3.2-1-.9c0,0-1-.9-1.6-1.2-.2,0-.3-.1-.3,0-.9,2.5-1,5.2.3,7.6-2.2,1.8-3.8,4.7-4.3,7.4.6-.5,1.1-1,1.9-1.2,0,0,0,0,0,0,0,0,0,0,0,0-.5,1.4-.9,2.7-.8,4.2,0,2.5,1.3,4.8,3.2,6.4.6.5,1.2.9,1.9,1.2,1.1.6,2.3.9,3.5,1,0,0,0,0,0,0,.2-.2,1.1-.5,1.3-.8-.8,0-1.6,0-2.5-.3-.7-.2-1.4-.4-2-.8-.4-.2-.7-.5-1-.8-.9-.9-1.6-2-1.8-3.3,0,0,0,0,0,0ZM17.6,11.2c.7-.6,1.9-.7,2.5.1.2.3.4.6.7,1h0c-.7-.1-1.1,0-1.6-.2-.3-.2-.4-.4-.6-.6-.3-.2-.6-.1-1-.3,0,0,0,0,0,0,0,0,0,0,0,0ZM9.8,4.9s0,0,0,0h0c.1.3.2.5.4.8.5.9,1.1,1.7,1.9,2.3l.7.7h0s0,0,0,0c-.4.6-1.1,1-1.7,1.2,0,0,0,0,0,0h0c-1.2-1.2-1.7-3.4-1.2-5Z"/>
  <path class="st4" d="M19.8,18.2h3.8c1.4,0,2.7-.4,3.6-1.4.7-.7,1.1-1.7,1.1-2.7,0-.4-.2-.8-.7-.9-2-.6-4.5-1.2-5.6-3.2-.5-.9-1.1-1.7-1.9-2.3-1-.8-2.2-1.3-3.5-1.6-.8-2-2.1-4.1-4.1-4.9-.4.7-.5,1.5-.5,2.2-1-1-2-1.8-3.3-2.4-1.4,2.8-1.7,6-.6,9-3.3,3-4.7,7.4-4.4,11.8.4-.7.7-1.5,1.3-2.2-.1,1.8.1,3.5.9,5.1,1.3,2.6,3.6,4.7,6.4,5.6,3.7,1.2,7.8.1,10.5-2.7,1.8-1.8,2.8-4.2,2.9-6.8,0-.4-.3-.6-.6-.6-.3,0-.6.3-.6.6-.2,5.1-4.6,9.1-9.6,8.7,0,0,0,0,0,0-1.2,0-2.4-.4-3.5-1-.7-.3-1.3-.7-1.9-1.2-1.9-1.6-3.1-3.9-3.2-6.4,0-1.4.3-2.8.8-4.2,0,0,0,0,0,0-.7.2-1.2.7-1.9,1.2,0,0,0,0,0,0,.5-2.8,2.1-5.6,4.3-7.4-1.2-2.4-1.2-5.1-.3-7.6,0,0,.2,0,.3,0,.5.3,1.5,1.2,1.6,1.2l1,.9,3.4,3.2s0,0,0,0c0-.5-.7-1.2-.6-1.6.9,0,1.7.3,2.5.5.2,0,.3.1.5.2.7.2,1.3.6,1.9,1,.8.6,1.3,1.3,1.7,2.2.4.8,1.6,1.8,2.6,2.4.3.2.7.4,1,.5l1.4.5s0,0,0,0c0,.5.2.9.4,1.4,0,0,0,0,0,0,0,0,0,0,0,0h0c0,.2,0,.3,0,.5-.4.5-.9.8-1.5,1.1-.6.2-1.2.3-1.9.3h-3.3c-1,0-1.9.2-2.7.6-.3.1-.6.3-.8.5-1.8,1.3-2.7,3.4-2.4,5.6,0,0,0,0,0,0,0,0,0,0,0,0-1-.7-1.6-1.8-1.9-2.9-.3-1.2,0-2.3.4-3.4,0,0,0,0,0,0-.6.2-1.6.9-2.1,1.4,0,0-.2,0-.2,0,0,0,0,0,0,0,0,0,0-.1,0-.2,0-1.9.7-3.5,2.2-4.8,0,0,0,0,0,0-1.8.7-3,2.4-3.2,4.3,0,1.1.1,2.1.6,3.1,0,0,0,0,0,0,.4-.5.7-.9,1.2-1.3,0,0,0,0,0,0,0,1.6.7,3,1.8,4.1,0,0,.1.1.2.2,1.3,1.2,3.4,2,5.2,1.3,0,0,0,0,0,0-.5,0-.9-.1-1.3-.3-.4-.2-.8-.4-1-.8-.3-.3-.4-.8-.5-1.2-.2-1.1.2-2.2.8-3.1.3-.4.5-.8,1-1.1,0,0,0,0,0,0-.4,1.4-.2,2.7.4,3.8.6,1,1.7,1.9,3,2.3,0,0,0,0,0,0-.2.3-.4.5-.6.7-1.2,1.1-3,1.5-4.6,1.3-1.3-.2-2.6-.7-3.7-1.4-.5-.4-.8-.6-1.1-.9,0,0-.1-.1-.2-.2,0,0,0,0,0,0-.3-.3-.6-.7-1.1-1.3,0,0,0,0,0,0,.2,1.3.8,2.4,1.8,3.3.3.3.6.6,1,.8.6.4,1.3.6,2,.8.8.2,1.6.2,2.5.3h0c0,0,.2,0,.3,0,2.5-.2,4.6-1.7,5.8-4-.9-.1-1.6-.3-2.3-.7-1.8-.9-2.6-3-1.6-4.8.3-.5.8-1,1.5-1Z"/>
  <path class="st1" d="M10.1,24.9s0,0,0,0"/>
  <path class="st2" d="M16.9,14.3c-1.7,0-3.3.6-4.7,1.7-.5.4-.9.9-1.3,1.5-.1.2-.2.4-.3.6.6-.3,1.2-.5,1.9-.6,0,0,0,.1,0,.2,0,0,0,0,0,.1,0,0,0,0,0,0-.5,1.1-.7,2.2-.4,3.4.3,1.2.9,2.2,1.9,2.9,0,0,0,0,0,0-.4-2.2.5-4.3,2.4-5.6.3-.2.5-.3.8-.5.8-.4,1.8-.7,2.7-.6h3.3c.6,0,1.3,0,1.9-.3.6-.2,1.1-.6,1.5-1.1.2-.2.1-.3,0-.5h0s0,0,0,0c0,0,0,0,0,0-.7.1-1.2.4-2.1.4-2.5-.1-4.3-1.7-7.6-1.5Z"/>
  <path class="st4" d="M11,9.9c.7-.2,1.3-.6,1.7-1.2h0s-.7-.7-.7-.7c-.8-.6-1.4-1.4-1.9-2.3-.1-.3-.3-.5-.4-.8,0,0,0,0,0,0-.4,1.6,0,3.8,1.2,5h0Z"/>
  <path class="st4" d="M19.2,12.1c.5.3.9.1,1.6.2h0c-.2-.4-.4-.7-.7-1-.6-.8-1.8-.8-2.5-.1,0,0,0,0,0,0,.3.1.7,0,1,.3.2.2.3.5.6.6Z"/>
</svg>