<?xml version="1.0" encoding="UTF-8"?>
<svg id="Ebene_2" data-name="Ebene 2" xmlns="http://www.w3.org/2000/svg" viewBox="0 0 909.63 220.45">
  <defs>
    <style>
      .cls-1 {
        fill: none;
      }

      .cls-2 {
        fill: #fff;
      }

      .cls-3 {
        fill: #fa5b30;
      }

      .cls-4 {
        fill: #2a3839;
      }
    </style>
  </defs>
  <g id="Ebene_1-2" data-name="Ebene 1">
    <g>
      <g>
        <path class="cls-1" d="M782.99,102.61c-2.94-1.56-6.24-2.35-9.82-2.35s-7.02.79-9.99,2.35c-2.98,1.56-5.45,3.71-7.35,6.4-1.79,2.53-2.99,5.39-3.55,8.52h41.24c-.43-3.06-1.54-5.91-3.29-8.47-1.86-2.72-4.3-4.89-7.23-6.45Z"/>
        <path class="cls-1" d="M581.83,103.12c-3.28-1.9-6.98-2.86-11.01-2.86s-7.73.96-11.01,2.86c-3.28,1.9-5.88,4.56-7.74,7.91-1.86,3.36-2.81,7.26-2.81,11.59s.95,8.12,2.81,11.48c1.86,3.35,4.46,6.01,7.74,7.91,3.27,1.9,6.98,2.86,11.01,2.86s7.73-.96,11.01-2.86c3.28-1.9,5.88-4.56,7.74-7.91,1.87-3.36,2.81-7.22,2.81-11.48s-.95-8.23-2.81-11.59c-1.86-3.35-4.46-6.01-7.74-7.91Z"/>
        <polygon class="cls-2" points="235.88 152.62 246.93 152.62 246.93 118.14 283.12 118.14 283.12 107.44 246.93 107.44 246.93 79.88 292.09 79.88 292.09 69.18 235.88 69.18 235.88 152.62"/>
        <path class="cls-2" d="M341.6,125.26c0,3.72-.75,7.04-2.24,9.87-1.46,2.79-3.53,4.97-6.14,6.46-2.63,1.51-5.68,2.27-9.08,2.27-4.52,0-8.02-1.35-10.7-4.14-2.66-2.76-4-6.93-4-12.4v-34.82h-10.35v35.4c0,7.95,2.21,14.3,6.56,18.9,4.37,4.62,10.21,6.96,17.35,6.96,4.91,0,9.28-1.07,12.98-3.19,2.2-1.26,4.08-2.75,5.63-4.45v6.49h10.36v-60.11h-10.36v32.75Z"/>
        <polygon class="cls-2" points="417.7 92.51 406.05 92.51 392.04 116.64 386.52 116.64 372.51 92.51 360.86 92.51 378.06 121.82 360.19 152.62 371.71 152.62 386.53 126.53 392.03 126.53 406.85 152.62 418.37 152.62 400.5 121.82 417.7 92.51"/>
        <path class="cls-2" d="M431.78,69.53c-1.85,0-3.48.66-4.83,1.97-1.37,1.32-2.07,2.98-2.07,4.93s.69,3.5,2.05,4.85c1.36,1.36,2.99,2.05,4.85,2.05s3.61-.7,4.93-2.07c1.31-1.36,1.97-2.98,1.97-4.83,0-1.94-.67-3.59-1.99-4.91-1.32-1.32-2.97-1.99-4.91-1.99Z"/>
        <rect class="cls-2" x="426.61" y="92.51" width="10.35" height="60.11"/>
        <path class="cls-2" d="M522.66,122.57c-2.18,6.32-5.96,11.73-11.22,16.1-5.25,4.35-12.02,6.55-20.13,6.55-6.09,0-11.69-1.47-16.64-4.36-4.95-2.89-8.89-6.96-11.71-12.1-2.82-5.15-4.25-11.16-4.25-17.86s1.43-12.71,4.25-17.86c2.81-5.14,6.75-9.21,11.71-12.11,4.96-2.89,10.56-4.36,16.64-4.36,7.89,0,14.51,2.03,19.69,6.04,5.19,4.02,8.92,9.03,11.1,14.89l.12.33h9.07l-.2-.65c-1.62-5.16-4.14-10.01-7.49-14.4-3.37-4.41-7.83-8.03-13.27-10.77-5.45-2.74-11.85-4.13-19.01-4.13-7.71,0-14.83,1.86-21.16,5.53-6.33,3.67-11.38,8.84-15.01,15.36-3.63,6.52-5.46,13.97-5.46,22.13s1.84,15.62,5.46,22.13c3.63,6.53,8.68,11.69,15.01,15.36,6.33,3.67,13.45,5.53,21.16,5.53,7.17,0,13.59-1.47,19.08-4.37,5.48-2.89,10.02-6.73,13.5-11.41,3.46-4.65,6.08-9.79,7.78-15.26l.2-.65h-9.08l-.12.34Z"/>
        <path class="cls-2" d="M586.01,96.27c-4.5-2.6-9.61-3.92-15.19-3.92s-10.69,1.32-15.19,3.92c-4.5,2.6-8.1,6.26-10.7,10.87-2.6,4.61-3.91,9.82-3.91,15.47s1.32,10.85,3.92,15.42c2.6,4.58,6.2,8.22,10.7,10.81,4.49,2.6,9.6,3.92,15.19,3.92s10.69-1.32,15.19-3.92c4.5-2.6,8.1-6.24,10.7-10.81,2.6-4.58,3.92-9.76,3.92-15.42s-1.32-10.86-3.91-15.47c-2.6-4.61-6.2-8.27-10.7-10.87ZM592.38,122.62c0,4.26-.95,8.12-2.81,11.48-1.86,3.35-4.46,6.01-7.74,7.91-3.28,1.9-6.98,2.86-11.01,2.86s-7.74-.96-11.01-2.86c-3.28-1.9-5.88-4.56-7.74-7.91-1.86-3.36-2.81-7.22-2.81-11.48s.95-8.24,2.81-11.59c1.86-3.35,4.46-6.01,7.74-7.91,3.27-1.9,6.98-2.86,11.01-2.86s7.73.96,11.01,2.86c3.28,1.9,5.88,4.56,7.74,7.91,1.87,3.36,2.81,7.26,2.81,11.59Z"/>
        <path class="cls-2" d="M641.72,92.36c-4.74,0-8.94,1.03-12.49,3.05-3.03,1.73-5.42,3.94-7.12,6.59v-8.5h-8.35v58.11h8.35v-31.75c0-3.88.79-7.34,2.36-10.28,1.56-2.93,3.76-5.24,6.53-6.87,2.78-1.63,6-2.46,9.57-2.46,4.81,0,8.67,1.49,11.47,4.44,2.81,2.95,4.23,7.28,4.23,12.87v34.05h8.36v-34.4c0-7.68-2.11-13.8-6.29-18.21-4.18-4.41-9.77-6.65-16.62-6.65Z"/>
        <path class="cls-2" d="M708.59,92.36c-4.74,0-8.94,1.03-12.49,3.05-3.03,1.73-5.42,3.94-7.12,6.59v-8.5h-8.35v58.11h8.35v-31.75c0-3.88.79-7.34,2.36-10.28,1.56-2.93,3.76-5.24,6.53-6.87,2.78-1.63,6-2.46,9.57-2.46,4.81,0,8.67,1.49,11.47,4.44,2.81,2.95,4.23,7.28,4.23,12.87v34.05h8.35v-34.4c0-7.68-2.11-13.8-6.29-18.21-4.18-4.41-9.77-6.65-16.62-6.65Z"/>
        <path class="cls-2" d="M787.84,96.28c-4.46-2.6-9.4-3.92-14.67-3.92s-10.54,1.32-14.96,3.92c-4.42,2.6-7.98,6.26-10.58,10.87-2.6,4.61-3.91,9.82-3.91,15.47s1.32,10.84,3.92,15.42c2.6,4.58,6.16,8.21,10.58,10.81,4.42,2.6,9.46,3.92,14.96,3.92,6.98,0,12.94-1.89,17.72-5.62,4.76-3.71,8.24-8.31,10.33-13.66l.27-.68h-8.4l-.14.28c-1.64,3.28-4.17,6.09-7.53,8.37-3.34,2.27-7.46,3.42-12.25,3.42-3.72,0-7.2-.89-10.33-2.64-3.13-1.75-5.67-4.2-7.57-7.29-1.82-2.95-2.92-6.31-3.27-9.98h50.4v-2.8c0-5.5-1.32-10.59-3.92-15.13-2.6-4.54-6.18-8.16-10.64-10.76ZM752.27,117.52c.57-3.12,1.76-5.99,3.55-8.52,1.9-2.68,4.38-4.83,7.35-6.4,2.98-1.56,6.34-2.35,9.99-2.35s6.88.79,9.82,2.35c2.94,1.56,5.37,3.73,7.23,6.45,1.75,2.56,2.86,5.41,3.29,8.47h-41.24Z"/>
        <path class="cls-2" d="M860.6,130.84c-1.42,3.88-3.84,7.23-7.2,9.95-3.34,2.71-7.64,4.08-12.78,4.08-3.72,0-7.19-.96-10.31-2.86-3.13-1.9-5.66-4.56-7.52-7.92-1.86-3.35-2.81-7.21-2.81-11.48s.93-8.24,2.75-11.6c1.82-3.35,4.33-6.01,7.46-7.91,3.12-1.9,6.63-2.86,10.43-2.86,4.84,0,8.96,1.22,12.23,3.64,3.28,2.42,5.66,5.43,7.07,8.92l.13.31h8.37l-.2-.65c-1.09-3.49-2.84-6.79-5.2-9.81-2.37-3.03-5.48-5.53-9.25-7.44-3.77-1.9-8.2-2.87-13.15-2.87-5.28,0-10.18,1.34-14.57,3.98-4.38,2.63-7.9,6.29-10.46,10.87-2.56,4.58-3.86,9.76-3.86,15.41s1.3,10.82,3.86,15.36c2.56,4.54,6.08,8.17,10.46,10.81,4.39,2.64,9.29,3.98,14.57,3.98s9.66-1.03,13.5-3.05c3.84-2.01,7.01-4.69,9.42-7.96,2.4-3.25,4.17-6.83,5.25-10.62l.18-.64h-8.25l-.12.33Z"/>
        <polygon class="cls-2" points="895.09 92.15 895.04 74.12 885.82 74.12 885.87 92.15 874.9 92.15 874.9 101.38 885.87 101.38 885.82 151.12 885.82 152.62 895.04 152.62 895.1 101.38 909.63 101.38 909.63 92.15 895.09 92.15"/>
      </g>
      <g>
        <path class="cls-2" d="M118.58,130.64h.03l26.96.18c.11,0,.21,0,.32,0,11.11,0,21.13-3.92,28.24-11.07,6.07-6.1,9.35-13.86,9.21-21.86-.08-4.81-2.95-8.65-7.5-10.01l-2.31-.69c-13.26-3.94-28.28-8.4-34.87-19.89-4.48-7.81-9.06-13.22-14.86-17.52-7.08-5.26-15.32-9.12-24.5-11.49-5.47-12.39-14.51-28.61-30.68-35.36l-3.11-1.29-1.81,2.84c-2.03,3.18-3.13,6.46-3.71,9.58-5.32-4.59-11.3-8.97-18.45-12.4l-3.48-1.66-1.79,3.41c-10.4,19.83-12.28,43.2-5.26,64.54C9.38,88.76-1.81,119.61.24,153.07l.89,14.53,6.66-12.95c.55-1.07,1.07-2.13,1.6-3.19.02-.04.04-.07.06-.11.83,8.46,3.08,16.4,6.79,23.99,9.7,19.86,27.14,35,47.82,41.53,7.63,2.41,15.41,3.58,23.11,3.58,20.54,0,40.52-8.34,55.42-23.85,13.51-14.07,21.16-32.19,21.53-51.02.05-2.32-.8-4.48-2.38-6.09-1.55-1.58-3.73-2.49-5.97-2.49h0c-4.54,0-7.99,3.52-8.19,8.36-.35,8.42-2.5,16.67-6.2,24.2l-4.72-.79c-5.82-.97-10.7-2.1-15.63-4.48-5.31-2.56-9.34-7.2-11.06-12.74-1.64-5.28-1.05-10.81,1.66-15.57,1.41-2.47,4.07-5.34,6.94-5.34ZM108.16,134.01c-7.03,12.34-1.56,27.77,11.14,33.89,5.33,2.57,10.64,3.81,16.71,4.82-7.76,15.53-21.43,26.1-38.17,28.18-.96.12-1.93.22-2.91.28-.95.06-1.74.51-2.37.48-1.63,2.5-8.04,4.43-9.33,5.96,2.71.19,5.4.21,8.06.05,32.05-1.91,58.9-28.79,60.29-62.15.11-2.7,1.79-4.52,4.2-4.52,2.35,0,4.4,1.84,4.35,4.51-.36,18.24-7.87,35.26-20.42,48.32-19.22,20.01-47.86,27.62-74.45,19.23-19.88-6.27-36.29-20.76-45.43-39.47-5.53-11.32-7.49-23.1-6.51-36.07-4.18,4.66-6.34,9.98-9.09,15.31-1.91-31.2,7.9-62.37,31.4-83.73-7.63-20.91-6.11-44.22,4.17-63.83,9.22,4.41,16.35,10.42,23.61,17.32-.14-5.62.53-11.05,3.66-15.96,14.6,6.09,23.41,21.21,29.34,35.08,9.18,2.13,17.57,5.77,25,11.29,6.02,4.47,10.09,9.87,13.77,16.3,7.8,13.61,25.36,18.19,39.51,22.43,2.9.87,4.6,3.13,4.65,6.24.12,7.24-2.91,13.82-8.05,18.97-6.81,6.84-16.03,9.95-25.7,9.89l-26.96-.18c-4.49-.03-8.29,3.52-10.48,7.36Z"/>
        <path class="cls-3" d="M60.98,193.73c-10.17-6.61-17.86-16.66-19.64-29.12,8.03,9.04,7.69,10.56,17.51,17.49,7.74,5.47,16.65,8.87,26.13,10.14,11.28,1.51,24.46-1.34,32.78-9.51,1.48-1.45,3.08-2.43,4.29-4.69-18.85-6.31-29.85-22.9-23.82-43.09-3.4,2.01-5.32,5-7.3,8.02-4.25,6.46-6.75,14.09-5.5,21.78,1.07,6.57,4.93,11.94,10.95,14.3,3.07,1.2,5.84,1.5,9.39,2.05-12.49,4.41-27.46-.69-36.98-9.47-8.58-7.92-13.72-18.14-14.06-30.23-3.82,2.43-5.61,5.84-8.65,9.06-2.99-6.82-4.62-14.36-3.93-21.94,1.22-13.51,9.78-25.8,22.84-30.7-8.46,7.71-13.82,17.2-15.08,27.94-.24,2.01-.34,4.07-.28,6.16,0,0,0,0,0,.01.01.48.25,1.03.39,1.28.24.42,1.12.31,1.54-.1,1.39-1.33,3.41-3.03,5.6-4.66,3.27-2.43,6.92-4.71,9.46-5.36.25-.57,1.19-.87.9-1.93-4.42.38-8.2,1.91-12.4,3.83-.26.12-.52.24-.78.36,2.26-6,6.06-10.62,10.86-14.56,9.36-7.66,20.98-11.63,33.07-12.13,23.19-.97,36.01,9.85,54.05,10.85,4.82.27,7.91-.9,11.29-1.82,1.24-.34,2.53-.65,3.95-.84-.45-1.27-.96-2.53-1.43-3.82-.67-1.88-1.23-3.82-1.26-5.98l-9.91-3.2c-8.31-2.68-21.36-12.61-25.34-20.59-3.1-6.23-6.7-11.25-12.31-15.35-5.08-3.72-10.27-6.55-16.46-8.3-5.81-1.65-11.48-3.48-17.69-3.74-.36,2.83,4.04,7.95,4.32,11.33l-23.88-23.08-6.83-6.28c-.88-.81-12.61-11.47-13.44-9.22-6.65,17.89-6.97,36.67,1.9,53.98-15.65,13.14-27.05,33.22-30.7,52.79,4.4-3.56,8.09-6.82,13.21-8.54-3.7,9.69-6.17,19.27-5.78,29.55.68,17.89,9.44,34,22.94,45.52,10.84,9.25,24.29,14.7,38.32,15.7,1.3-1.53,7.7-3.46,9.33-5.96-5.8-.22-11.66-.35-17.47-1.96-5.05-1.4-9.75-3.14-14.11-5.97ZM114.6,83.16c-1.92-1.1-2.81-3.18-4.39-4.57-1.82-1.59-4.52-.83-6.93-1.87,5.18-4.35,13.46-4.84,17.7.99,1.68,2.31,3.07,4.53,4.68,7.22-4.95-.92-7.6.2-11.06-1.78ZM68.4,58.79c-3.17,4.29-7.59,7.06-12.33,8.78-8.37-8.26-11.81-23.97-8.63-35.53,3.73,8.82,8.67,16.2,15.91,22.06l5.06,4.69Z"/>
        <path class="cls-4" d="M145.6,126.83c9.67.07,18.89-3.05,25.7-9.89,5.13-5.15,8.17-11.73,8.05-18.97-.05-3.12-1.75-5.37-4.65-6.24-14.15-4.24-31.71-8.81-39.51-22.43-3.68-6.43-7.76-11.83-13.77-16.3-7.43-5.52-15.82-9.16-25-11.29-5.93-13.87-14.75-28.99-29.34-35.08-3.13,4.92-3.8,10.34-3.66,15.96-7.25-6.9-14.39-12.91-23.61-17.32-10.28,19.6-11.8,42.92-4.17,63.83C12.13,90.46,2.32,121.63,4.23,152.83c2.74-5.33,4.91-10.65,9.09-15.31-.98,12.97.98,24.76,6.51,36.07,9.14,18.71,25.55,33.2,45.43,39.47,26.59,8.39,55.23.78,74.45-19.23,12.54-13.06,20.06-30.08,20.42-48.32.05-2.67-2-4.51-4.35-4.51-2.41,0-4.09,1.83-4.2,4.52-1.39,33.36-28.24,60.24-60.29,62.15-2.65.16-5.34.15-8.06-.05-14.04-1.01-27.49-6.46-38.32-15.7-13.5-11.52-22.26-27.63-22.94-45.52-.39-10.29,2.08-19.86,5.78-29.55-5.12,1.72-8.81,4.99-13.21,8.54,3.65-19.57,15.05-39.66,30.7-52.79-8.86-17.31-8.55-36.09-1.9-53.98.83-2.25,12.56,8.41,13.44,9.22l6.83,6.28,23.88,23.08c-.29-3.38-4.69-8.5-4.32-11.33,6.21.26,11.88,2.09,17.69,3.74,6.19,1.75,11.38,4.58,16.46,8.3,5.61,4.1,9.2,9.13,12.31,15.35,3.98,7.98,17.03,17.91,25.34,20.59l9.91,3.2c.03,2.16.58,4.11,1.26,5.98.46,1.29.98,2.54,1.43,3.82.4,1.14.68,1.82-.53,3.23-.34.39-.69.77-1.05,1.14-5.9,6.09-14.39,8.91-23.08,8.84l-23.78-.2c-9.2-.08-17.73,2.88-25.2,8.07-12.87,8.96-19.32,24.17-16.72,39.85-7.33-5.05-11.68-12.44-13.54-20.7-1.44-6.41-.84-12.77,1.03-18.81.54-1.75,1.19-3.48,1.92-5.18-2.54.66-6.19,2.93-9.46,5.36-2.19,1.63-4.21,3.33-5.6,4.66-.43.41-1.3.53-1.54.1-.14-.25-.38-.8-.39-1.28,0,0,0,0,0-.01-.06-2.1.04-4.15.28-6.16,1.25-10.74,6.62-20.22,15.08-27.94-13.06,4.91-21.62,17.19-22.84,30.7-.69,7.58.94,15.11,3.93,21.94,3.05-3.21,4.83-6.62,8.65-9.06.34,12.09,5.47,22.31,14.06,30.23,9.51,8.77,24.49,13.87,36.98,9.47-3.55-.54-6.32-.85-9.39-2.05-6.02-2.36-9.88-7.73-10.95-14.3-1.25-7.69,1.25-15.33,5.5-21.78,1.99-3.02,3.91-6.01,7.3-8.02-6.03,20.18,4.97,36.77,23.82,43.09-1.22,2.26-2.82,3.24-4.29,4.69-8.32,8.17-21.5,11.01-32.78,9.51-9.48-1.27-18.39-4.67-26.13-10.14-9.82-6.93-9.47-8.45-17.51-17.49,1.78,12.45,9.47,22.51,19.64,29.12,4.36,2.83,9.06,4.58,14.11,5.97,5.81,1.61,11.66,1.73,17.47,1.96.63.02,1.42-.42,2.37-.48.98-.06,1.95-.16,2.91-.28,16.74-2.08,30.41-12.66,38.17-28.18-6.06-1.01-11.38-2.25-16.71-4.82-12.69-6.12-18.17-21.55-11.14-33.89,2.19-3.84,5.98-7.39,10.48-7.36l26.96.18Z"/>
        <path class="cls-2" d="M152.32,109.51c-18.04-.99-30.86-11.82-54.05-10.85-12.09.51-23.71,4.48-33.07,12.13-4.81,3.93-8.61,8.56-10.86,14.56.27-.12.52-.24.78-.36,4.2-1.92,7.98-3.45,12.4-3.83.29,1.06-.65,1.36-.9,1.93-.74,1.69-1.38,3.42-1.92,5.18-1.87,6.04-2.47,12.4-1.03,18.81,1.86,8.25,6.21,15.65,13.54,20.7-2.6-15.68,3.85-30.9,16.72-39.85,7.46-5.19,16-8.15,25.2-8.07l23.78.2c8.69.07,17.17-2.75,23.08-8.84.36-.37.71-.75,1.05-1.14,1.21-1.4.93-2.09.53-3.23-1.42.19-2.71.5-3.95.84-3.39.92-6.48,2.09-11.29,1.82Z"/>
        <path class="cls-4" d="M47.43,32.04c-3.18,11.56.26,27.27,8.63,35.53,4.75-1.72,9.16-4.5,12.33-8.78l-5.06-4.69c-7.24-5.86-12.18-13.23-15.91-22.06Z"/>
        <path class="cls-4" d="M120.98,77.71c-4.24-5.83-12.52-5.34-17.7-.99,2.41,1.04,5.11.28,6.93,1.87,1.58,1.38,2.47,3.47,4.39,4.57,3.46,1.97,6.11.86,11.06,1.78-1.61-2.69-3-4.91-4.68-7.22Z"/>
      </g>
    </g>
  </g>
</svg>