<?xml version="1.0" encoding="UTF-8"?>
<svg id="Ebene_2" data-name="Ebene 2" xmlns="http://www.w3.org/2000/svg" viewBox="0 0 673.25 396.09">
  <defs>
    <style>
      .cls-1 {
        fill: #fff;
      }

      .cls-2, .cls-3, .cls-4 {
        fill: #2a3839;
      }

      .cls-2, .cls-4 {
        stroke: #2a3839;
        stroke-miterlimit: 10;
      }

      .cls-5 {
        fill: #fa5b30;
      }

      .cls-4 {
        stroke-width: 3px;
      }
    </style>
  </defs>
  <g id="Ebene_1-2" data-name="Ebene 1">
    <g>
      <path class="cls-5" d="M438.74,126.99c-6.63.89-10.82,3.78-19.05,3.33-22.55-1.24-38.58-14.77-67.57-13.56-15.11.63-29.64,5.6-41.34,15.17-6.01,4.92-10.76,10.7-13.58,18.2,5.65-2.61,10.61-4.73,16.48-5.24.36,1.32-.81,1.7-1.12,2.41-5.31,1.38-14.51,8.39-18.83,12.53-.54.51-1.63.66-1.93.13-.18-.31-.48-1-.49-1.6-.5-16.61,6.64-31.19,19.2-42.64-16.33,6.13-27.02,21.49-28.55,38.38-.86,9.47,1.17,18.89,4.91,27.42,3.81-4.02,6.04-8.28,10.82-11.32.43,15.11,6.84,27.89,17.57,37.79,11.89,10.97,30.61,17.34,46.22,11.83-4.44-.68-7.9-1.06-11.74-2.56-7.52-2.95-12.35-9.67-13.68-17.88-1.56-9.62,1.56-19.16,6.88-27.23,2.49-3.77,4.89-7.51,9.13-10.02-7.53,25.23,6.21,45.97,29.78,53.86-1.52,2.83-3.52,4.05-5.37,5.86-10.4,10.21-26.88,13.77-40.98,11.88-11.86-1.59-22.99-5.84-32.67-12.67-12.27-8.66-11.84-10.56-21.88-21.86,2.22,15.57,11.84,28.14,24.55,36.4,5.45,3.54,11.33,5.72,17.64,7.47,7.26,2.01,14.58,2.17,21.84,2.45-2.04,3.12-10.04,5.54-11.66,7.46-17.55-1.26-34.36-8.07-47.91-19.63-16.87-14.4-27.83-34.54-28.67-56.9-.49-12.86,2.6-24.83,7.22-36.94-6.39,2.15-11.02,6.24-16.51,10.68,4.57-24.47,18.82-49.57,38.38-66-11.08-21.64-10.69-45.11-2.37-67.48,1.04-2.81,15.7,10.52,16.8,11.53l8.54,7.85,29.85,28.86c-.36-4.23-5.86-10.63-5.41-14.17,7.76.32,14.85,2.61,22.11,4.67,7.73,2.19,14.22,5.72,20.58,10.38,7.01,5.13,11.51,11.41,15.39,19.19,4.98,9.98,21.29,22.39,31.68,25.74l12.39,4c.06,4.56,1.98,8.33,3.35,12.25ZM314.77,66.9l-6.32-5.86c-9.05-7.32-15.23-16.54-19.88-27.57-3.98,14.45.33,34.09,10.79,44.42,5.93-2.15,11.45-5.62,15.42-10.98ZM386.35,99.58c-2.01-3.36-3.75-6.14-5.85-9.02-5.3-7.29-15.65-6.68-22.12-1.24,3.01,1.3,6.39.35,8.66,2.34,1.98,1.73,3.09,4.34,5.49,5.71,4.32,2.47,7.64,1.07,13.82,2.22Z"/>
      <path class="cls-3" d="M344.97,245.51c-7.25-.28-14.58-.44-21.84-2.45-6.31-1.75-12.18-3.92-17.64-7.47-12.71-8.26-22.33-20.83-24.55-36.4,10.04,11.3,9.61,13.2,21.88,21.86,9.68,6.83,20.81,11.09,32.67,12.67,14.1,1.89,30.57-1.67,40.98-11.88,1.85-1.81,3.85-3.03,5.37-5.86-23.56-7.89-37.31-28.63-29.78-53.86-4.25,2.51-6.65,6.25-9.13,10.02-5.32,8.07-8.44,17.62-6.88,27.23,1.34,8.21,6.16,14.93,13.68,17.88,3.84,1.5,7.3,1.88,11.74,2.56-15.61,5.51-34.33-.87-46.22-11.83-10.73-9.9-17.15-22.67-17.57-37.79-4.78,3.04-7.01,7.3-10.82,11.32-3.74-8.53-5.77-17.95-4.91-27.42,1.53-16.89,12.22-32.25,28.55-38.38-12.56,11.45-19.69,26.03-19.2,42.64.02.6.31,1.29.49,1.6.3.53,1.39.38,1.93-.13,4.32-4.15,13.52-11.16,18.83-12.53-4.1,9.4-6.02,19.64-3.69,29.99,2.32,10.32,7.76,19.57,16.92,25.88-3.25-19.6,4.81-38.62,20.9-49.82,9.33-6.49,20-10.19,31.5-10.09l29.72.25c11.52.1,22.76-3.87,30.16-12.47,1.51-1.75,1.16-2.61.66-4.03-1.38-3.92-3.29-7.69-3.35-12.25l-12.39-4c-10.38-3.35-26.7-15.76-31.68-25.74-3.88-7.78-8.38-14.06-15.39-19.19-6.35-4.65-12.84-8.18-20.58-10.38-7.26-2.06-14.35-4.35-22.11-4.67-.45,3.54,5.05,9.94,5.41,14.17l-29.85-28.86-8.54-7.85c-1.1-1.01-15.76-14.34-16.8-11.53-8.32,22.37-8.71,45.84,2.37,67.48-19.57,16.42-33.82,41.53-38.38,66,5.5-4.44,10.12-8.53,16.51-10.68-4.62,12.12-7.71,24.09-7.22,36.94.85,22.36,11.8,42.51,28.67,56.9,13.55,11.56,30.36,18.37,47.91,19.63,44.36,3.18,83.55-32.48,85.44-77.63.14-3.37,2.24-5.65,5.25-5.66s5.51,2.3,5.44,5.63c-.45,22.81-9.84,44.08-25.52,60.41-24.02,25.01-59.83,34.53-93.07,24.03-24.85-7.84-45.37-25.95-56.8-49.34-6.91-14.15-9.37-28.88-8.14-45.1-5.22,5.82-7.93,12.48-11.36,19.14-2.39-39,9.88-77.97,39.26-104.67-9.53-26.14-7.64-55.28,5.21-79.79,11.52,5.51,20.44,13.03,29.51,21.65-.18-7.02.67-13.81,4.58-19.96,18.25,7.61,29.27,26.52,36.68,43.85,11.47,2.66,21.96,7.22,31.25,14.11,7.52,5.58,12.61,12.34,17.22,20.38,9.75,17.02,31.7,22.74,49.39,28.03,3.62,1.09,5.75,3.91,5.81,7.8.15,9.05-3.64,17.28-10.06,23.72-8.52,8.55-20.04,12.44-32.13,12.36l-33.7-.23c-5.61-.04-10.36,4.4-13.1,9.21-8.79,15.42-1.95,34.71,13.92,42.37,6.66,3.21,13.31,4.76,20.88,6.03-10.25,20.52-28.77,34.14-51.35,35.58-1.18.08-2.17.63-2.96.6Z"/>
      <path class="cls-1" d="M438.74,126.99c.5,1.42.85,2.28-.66,4.03-7.4,8.6-18.64,12.57-30.16,12.47l-29.72-.25c-11.49-.1-22.17,3.6-31.5,10.09-16.09,11.2-24.15,30.22-20.9,49.82-9.16-6.31-14.6-15.56-16.92-25.88-2.33-10.35-.41-20.58,3.69-29.99.31-.71,1.49-1.09,1.12-2.41-5.87.51-10.83,2.63-16.48,5.24,2.82-7.49,7.57-13.28,13.58-18.2,11.69-9.57,26.23-14.54,41.34-15.17,28.99-1.21,45.02,12.32,67.57,13.56,8.23.45,12.43-2.43,19.05-3.33Z"/>
      <path class="cls-3" d="M314.77,66.9c-3.97,5.36-9.49,8.83-15.42,10.98-10.46-10.33-14.77-29.97-10.79-44.42,4.66,11.03,10.84,20.25,19.88,27.57l6.32,5.86Z"/>
      <path class="cls-3" d="M386.35,99.58c-6.19-1.15-9.5.25-13.82-2.22-2.4-1.37-3.52-3.98-5.49-5.71-2.27-1.99-5.65-1.04-8.66-2.34,6.48-5.44,16.82-6.05,22.12,1.24,2.1,2.89,3.84,5.66,5.85,9.02Z"/>
      <path class="cls-4" d="M1.5,393.29v-80.44h53.2v7.7H9.54v30.57h36.2v7.7H9.54v34.47H1.5Z"/>
      <path class="cls-4" d="M87.11,394.44c-6.74,0-12.16-2.16-16.26-6.49-4.1-4.33-6.15-10.28-6.15-17.87v-33.9h7.35v33.32c0,5.9,1.47,10.38,4.42,13.44,2.95,3.07,6.87,4.6,11.78,4.6,3.68,0,6.95-.82,9.83-2.47,2.87-1.65,5.11-4,6.72-7.07,1.61-3.06,2.41-6.59,2.41-10.57v-31.25h7.35v57.11h-7.35v-9.54h-.12c-1.68,3.14-4.27,5.71-7.76,7.7-3.49,1.99-7.57,2.99-12.24,2.99Z"/>
      <path class="cls-4" d="M126.91,393.29l17.01-29.3-16.32-27.81h8.16l14.02,24.13h7.24l14.02-24.13h8.16l-16.32,27.81,17.01,29.3h-8.04l-14.82-26.08h-7.24l-14.82,26.08h-8.04Z"/>
      <path class="cls-4" d="M195.9,324c-1.46,0-2.72-.53-3.79-1.61-1.07-1.07-1.61-2.33-1.61-3.79,0-1.53.53-2.82,1.61-3.85,1.07-1.03,2.34-1.55,3.79-1.55,1.53,0,2.81.52,3.85,1.55,1.03,1.03,1.55,2.32,1.55,3.85s-.52,2.72-1.55,3.79c-1.03,1.08-2.32,1.61-3.85,1.61ZM192.22,393.29v-57.11h7.35v57.11h-7.35Z"/>
      <path class="cls-2" d="M255.42,395.59c-7.66,0-14.63-1.82-20.91-5.46-6.28-3.63-11.22-8.69-14.82-15.17-3.6-6.47-5.4-13.77-5.4-21.89s1.8-15.42,5.4-21.89c3.6-6.47,8.54-11.53,14.82-15.17,6.28-3.64,13.25-5.46,20.91-5.46,7.12,0,13.39,1.36,18.79,4.08,5.4,2.72,9.77,6.26,13.1,10.63,3.33,4.37,5.8,9.12,7.41,14.25h-8.04c-2.22-5.98-5.98-11.01-11.26-15.11-5.29-4.1-11.95-6.15-19.99-6.15-6.2,0-11.84,1.48-16.89,4.42-5.06,2.95-9.02,7.05-11.89,12.3-2.87,5.25-4.31,11.28-4.31,18.1s1.44,12.85,4.31,18.1c2.87,5.25,6.84,9.35,11.89,12.29,5.06,2.95,10.69,4.43,16.89,4.43,8.27,0,15.09-2.22,20.45-6.66,5.36-4.44,9.15-9.88,11.38-16.32h8.04c-1.69,5.44-4.25,10.48-7.7,15.11-3.45,4.64-7.89,8.39-13.33,11.26-5.44,2.87-11.72,4.31-18.84,4.31Z"/>
      <path class="cls-2" d="M334.93,394.44c-5.52,0-10.5-1.28-14.94-3.85-4.44-2.57-7.95-6.11-10.51-10.63-2.57-4.52-3.85-9.58-3.85-15.17s1.28-10.67,3.85-15.23c2.57-4.55,6.07-8.12,10.51-10.69,4.44-2.57,9.42-3.85,14.94-3.85s10.5,1.28,14.94,3.85c4.44,2.57,7.95,6.13,10.51,10.69,2.57,4.56,3.85,9.63,3.85,15.23s-1.28,10.65-3.85,15.17c-2.57,4.52-6.07,8.06-10.51,10.63-4.44,2.57-9.42,3.85-14.94,3.85ZM334.93,387.55c4.14,0,7.89-.98,11.26-2.93,3.37-1.95,6.01-4.65,7.93-8.1,1.91-3.45,2.87-7.35,2.87-11.72s-.96-8.39-2.87-11.84c-1.92-3.45-4.56-6.15-7.93-8.1-3.37-1.95-7.12-2.93-11.26-2.93s-7.89.98-11.26,2.93c-3.37,1.95-6.01,4.65-7.93,8.1-1.92,3.45-2.87,7.39-2.87,11.84s.96,8.27,2.87,11.72c1.91,3.45,4.56,6.15,7.93,8.1,3.37,1.95,7.12,2.93,11.26,2.93Z"/>
      <path class="cls-2" d="M378.37,393.29v-57.11h7.35v9.65h.12c1.68-3.22,4.27-5.82,7.76-7.81,3.48-1.99,7.56-2.99,12.24-2.99,6.74,0,12.16,2.17,16.26,6.49,4.1,4.33,6.15,10.28,6.15,17.87v33.9h-7.35v-33.55c0-5.74-1.46-10.15-4.37-13.21-2.91-3.06-6.86-4.6-11.84-4.6-3.68,0-6.95.84-9.82,2.53-2.87,1.69-5.11,4.04-6.72,7.07-1.61,3.03-2.41,6.53-2.41,10.51v31.25h-7.35Z"/>
      <path class="cls-2" d="M445.24,393.29v-57.11h7.35v9.65h.12c1.68-3.22,4.27-5.82,7.76-7.81,3.48-1.99,7.56-2.99,12.24-2.99,6.74,0,12.16,2.17,16.26,6.49,4.1,4.33,6.15,10.28,6.15,17.87v33.9h-7.35v-33.55c0-5.74-1.46-10.15-4.37-13.21s-6.86-4.6-11.84-4.6c-3.68,0-6.95.84-9.82,2.53-2.87,1.69-5.11,4.04-6.72,7.07-1.61,3.03-2.41,6.53-2.41,10.51v31.25h-7.35Z"/>
      <path class="cls-2" d="M537.28,394.44c-5.44,0-10.34-1.28-14.71-3.85-4.37-2.57-7.83-6.11-10.4-10.63-2.57-4.52-3.85-9.58-3.85-15.17s1.28-10.67,3.85-15.23c2.57-4.55,6.03-8.12,10.4-10.69,4.37-2.57,9.27-3.85,14.71-3.85s10.02,1.28,14.42,3.85c4.4,2.57,7.89,6.09,10.46,10.57,2.57,4.48,3.85,9.44,3.85,14.88v2.3h-50.44c.3,3.98,1.44,7.57,3.39,10.74,1.95,3.18,4.54,5.67,7.76,7.47,3.22,1.8,6.74,2.7,10.57,2.7,4.9,0,9.08-1.17,12.53-3.5,3.45-2.34,6.01-5.19,7.7-8.56h7.35c-2.07,5.29-5.46,9.77-10.17,13.44-4.71,3.68-10.51,5.52-17.41,5.52ZM558.2,360.2c-.38-3.37-1.53-6.45-3.45-9.25-1.92-2.8-4.39-5-7.41-6.61-3.03-1.61-6.38-2.41-10.05-2.41s-7.16.8-10.23,2.41-5.57,3.79-7.53,6.55c-1.95,2.76-3.2,5.86-3.73,9.31h42.4Z"/>
      <path class="cls-2" d="M604.73,394.44c-5.21,0-9.98-1.3-14.31-3.91-4.33-2.61-7.76-6.15-10.28-10.63-2.53-4.48-3.79-9.52-3.79-15.11s1.26-10.65,3.79-15.17,5.96-8.08,10.28-10.69c4.33-2.61,9.1-3.91,14.31-3.91,4.9,0,9.21.94,12.93,2.81,3.71,1.88,6.74,4.31,9.08,7.3,2.34,2.99,4.04,6.21,5.11,9.65h-7.35c-1.46-3.6-3.87-6.65-7.24-9.14-3.37-2.49-7.55-3.73-12.52-3.73-3.91,0-7.47.98-10.69,2.93-3.22,1.95-5.77,4.65-7.64,8.1-1.88,3.45-2.81,7.39-2.81,11.84s.96,8.27,2.87,11.72c1.91,3.45,4.48,6.15,7.7,8.1,3.22,1.95,6.74,2.93,10.57,2.93,5.29,0,9.65-1.4,13.1-4.19,3.45-2.8,5.9-6.19,7.35-10.17h7.24c-1.07,3.75-2.8,7.24-5.17,10.46-2.38,3.22-5.46,5.82-9.25,7.81-3.79,1.99-8.22,2.99-13.27,2.99Z"/>
      <polygon class="cls-3" points="658.71 334.83 658.65 316.79 650.43 316.79 650.49 334.83 639.52 334.83 639.52 343.05 650.49 343.05 650.44 393.29 650.44 394.3 658.66 394.3 658.71 343.05 673.25 343.05 673.25 334.83 658.71 334.83"/>
    </g>
  </g>
</svg>