<?xml version="1.0" encoding="UTF-8"?>
<svg id="Ebene_2" data-name="Ebene 2" xmlns="http://www.w3.org/2000/svg" viewBox="0 0 673.75 402.68">
  <defs>
    <style>
      .cls-1 {
        fill: none;
      }

      .cls-2 {
        fill: #fff;
      }

      .cls-3 {
        fill: #fa5b30;
      }

      .cls-4 {
        fill: #2a3839;
      }
    </style>
  </defs>
  <g id="Ebene_1-2" data-name="Ebene 1">
    <g>
      <g>
        <path class="cls-1" d="M547.1,351.37c-2.94-1.56-6.24-2.35-9.82-2.35s-7.02.79-9.99,2.35c-2.98,1.56-5.45,3.71-7.35,6.4-1.79,2.53-2.99,5.39-3.55,8.52h41.24c-.43-3.06-1.54-5.91-3.29-8.47-1.86-2.72-4.3-4.89-7.23-6.45Z"/>
        <path class="cls-1" d="M345.94,351.88c-3.28-1.9-6.98-2.86-11.01-2.86s-7.73.96-11.01,2.86c-3.28,1.9-5.88,4.56-7.74,7.91-1.86,3.36-2.81,7.26-2.81,11.59s.95,8.12,2.81,11.48c1.86,3.35,4.46,6.01,7.74,7.91,3.27,1.9,6.98,2.86,11.01,2.86s7.73-.96,11.01-2.86c3.28-1.9,5.88-4.56,7.74-7.91,1.87-3.36,2.81-7.22,2.81-11.48s-.95-8.23-2.81-11.59c-1.86-3.35-4.46-6.01-7.74-7.91Z"/>
        <polygon class="cls-2" points="0 401.38 11.04 401.38 11.04 366.91 47.24 366.91 47.24 356.21 11.04 356.21 11.04 328.64 56.2 328.64 56.2 317.95 0 317.95 0 401.38"/>
        <path class="cls-2" d="M105.71,374.03c0,3.72-.75,7.04-2.24,9.87-1.46,2.79-3.53,4.97-6.14,6.46-2.63,1.51-5.68,2.27-9.08,2.27-4.52,0-8.02-1.35-10.7-4.14-2.66-2.76-4-6.93-4-12.4v-34.82h-10.35v35.4c0,7.95,2.21,14.3,6.56,18.9,4.37,4.62,10.21,6.96,17.35,6.96,4.91,0,9.28-1.07,12.98-3.19,2.2-1.26,4.08-2.75,5.63-4.45v6.49h10.36v-60.11h-10.36v32.75Z"/>
        <polygon class="cls-2" points="181.81 341.27 170.17 341.27 156.15 365.4 150.64 365.4 136.62 341.27 124.98 341.27 142.18 370.58 124.31 401.38 135.83 401.38 150.65 375.3 156.14 375.3 170.96 401.38 182.49 401.38 164.61 370.58 181.81 341.27"/>
        <path class="cls-2" d="M195.9,318.29c-1.85,0-3.48.66-4.83,1.97-1.37,1.32-2.07,2.98-2.07,4.93s.69,3.5,2.05,4.85c1.36,1.36,2.99,2.05,4.85,2.05s3.61-.7,4.93-2.07c1.31-1.36,1.97-2.98,1.97-4.83,0-1.94-.67-3.59-1.99-4.91-1.32-1.32-2.97-1.99-4.91-1.99Z"/>
        <rect class="cls-2" x="190.72" y="341.27" width="10.35" height="60.11"/>
        <path class="cls-2" d="M286.78,371.34c-2.18,6.32-5.96,11.73-11.22,16.1-5.25,4.35-12.02,6.55-20.13,6.55-6.09,0-11.69-1.47-16.64-4.36-4.95-2.89-8.89-6.96-11.71-12.1-2.82-5.15-4.25-11.16-4.25-17.86s1.43-12.71,4.25-17.86c2.81-5.14,6.75-9.21,11.71-12.11,4.96-2.89,10.56-4.36,16.64-4.36,7.89,0,14.51,2.03,19.69,6.04,5.19,4.02,8.92,9.03,11.1,14.89l.12.33h9.07l-.2-.65c-1.62-5.16-4.14-10.01-7.49-14.4-3.37-4.41-7.83-8.03-13.27-10.77-5.45-2.74-11.85-4.13-19.01-4.13-7.71,0-14.83,1.86-21.16,5.53-6.33,3.67-11.38,8.84-15.01,15.36-3.63,6.52-5.46,13.97-5.46,22.13s1.84,15.62,5.46,22.13c3.63,6.53,8.68,11.69,15.01,15.36,6.33,3.67,13.45,5.53,21.16,5.53,7.17,0,13.59-1.47,19.08-4.37,5.48-2.89,10.02-6.73,13.5-11.41,3.46-4.65,6.08-9.79,7.78-15.26l.2-.65h-9.08l-.12.34Z"/>
        <path class="cls-2" d="M350.12,345.04c-4.5-2.6-9.61-3.92-15.19-3.92s-10.69,1.32-15.19,3.92c-4.5,2.6-8.1,6.26-10.7,10.87-2.6,4.61-3.91,9.82-3.91,15.47s1.32,10.85,3.92,15.42c2.6,4.58,6.2,8.22,10.7,10.81,4.49,2.6,9.6,3.92,15.19,3.92s10.69-1.32,15.19-3.92c4.5-2.6,8.1-6.24,10.7-10.81,2.6-4.58,3.92-9.76,3.92-15.42s-1.32-10.86-3.91-15.47c-2.6-4.61-6.2-8.27-10.7-10.87ZM356.5,371.38c0,4.26-.95,8.12-2.81,11.48-1.86,3.35-4.46,6.01-7.74,7.91-3.28,1.9-6.98,2.86-11.01,2.86s-7.74-.96-11.01-2.86c-3.28-1.9-5.88-4.56-7.74-7.91-1.86-3.36-2.81-7.22-2.81-11.48s.95-8.24,2.81-11.59c1.86-3.35,4.46-6.01,7.74-7.91,3.27-1.9,6.98-2.86,11.01-2.86s7.73.96,11.01,2.86c3.28,1.9,5.88,4.56,7.74,7.91,1.87,3.36,2.81,7.26,2.81,11.59Z"/>
        <path class="cls-2" d="M405.83,341.12c-4.74,0-8.94,1.03-12.49,3.05-3.03,1.73-5.42,3.94-7.12,6.59v-8.5h-8.35v58.11h8.35v-31.75c0-3.88.79-7.34,2.36-10.28,1.56-2.93,3.76-5.24,6.53-6.87,2.78-1.63,6-2.46,9.57-2.46,4.81,0,8.67,1.49,11.47,4.44,2.81,2.95,4.23,7.28,4.23,12.87v34.05h8.36v-34.4c0-7.68-2.11-13.8-6.29-18.21-4.18-4.41-9.77-6.65-16.62-6.65Z"/>
        <path class="cls-2" d="M472.71,341.12c-4.74,0-8.94,1.03-12.49,3.05-3.03,1.73-5.42,3.94-7.12,6.59v-8.5h-8.35v58.11h8.35v-31.75c0-3.88.79-7.34,2.36-10.28,1.56-2.93,3.76-5.24,6.53-6.87,2.78-1.63,6-2.46,9.57-2.46,4.81,0,8.67,1.49,11.47,4.44,2.81,2.95,4.23,7.28,4.23,12.87v34.05h8.35v-34.4c0-7.68-2.11-13.8-6.29-18.21-4.18-4.41-9.77-6.65-16.62-6.65Z"/>
        <path class="cls-2" d="M551.96,345.04c-4.46-2.6-9.4-3.92-14.67-3.92s-10.54,1.32-14.96,3.92c-4.42,2.6-7.98,6.26-10.58,10.87-2.6,4.61-3.91,9.82-3.91,15.47s1.32,10.84,3.92,15.42c2.6,4.58,6.16,8.21,10.58,10.81,4.42,2.6,9.46,3.92,14.96,3.92,6.98,0,12.94-1.89,17.72-5.62,4.76-3.71,8.24-8.31,10.33-13.66l.27-.68h-8.4l-.14.28c-1.64,3.28-4.17,6.09-7.53,8.37-3.34,2.27-7.46,3.42-12.25,3.42-3.72,0-7.2-.89-10.33-2.64-3.13-1.75-5.67-4.2-7.57-7.29-1.82-2.95-2.92-6.31-3.27-9.98h50.4v-2.8c0-5.5-1.32-10.59-3.92-15.13-2.6-4.54-6.18-8.16-10.64-10.76ZM516.39,366.29c.57-3.12,1.76-5.99,3.55-8.52,1.9-2.68,4.38-4.83,7.35-6.4,2.98-1.56,6.34-2.35,9.99-2.35s6.88.79,9.82,2.35c2.94,1.56,5.37,3.73,7.23,6.45,1.75,2.56,2.86,5.41,3.29,8.47h-41.24Z"/>
        <path class="cls-2" d="M624.72,379.6c-1.42,3.88-3.84,7.23-7.2,9.95-3.34,2.71-7.64,4.08-12.78,4.08-3.72,0-7.19-.96-10.31-2.86-3.13-1.9-5.66-4.56-7.52-7.92-1.86-3.35-2.81-7.21-2.81-11.48s.93-8.24,2.75-11.6c1.82-3.35,4.33-6.01,7.46-7.91,3.12-1.9,6.63-2.86,10.43-2.86,4.84,0,8.96,1.22,12.23,3.64,3.28,2.42,5.66,5.43,7.07,8.92l.13.31h8.37l-.2-.65c-1.09-3.49-2.84-6.79-5.2-9.81-2.37-3.03-5.48-5.53-9.25-7.44-3.77-1.9-8.2-2.87-13.15-2.87-5.28,0-10.18,1.34-14.57,3.98-4.38,2.63-7.9,6.29-10.46,10.87-2.56,4.58-3.86,9.76-3.86,15.41s1.3,10.82,3.86,15.36c2.56,4.54,6.08,8.17,10.46,10.81,4.39,2.64,9.29,3.98,14.57,3.98s9.66-1.03,13.5-3.05c3.84-2.01,7.01-4.69,9.42-7.96,2.4-3.25,4.17-6.83,5.25-10.62l.18-.64h-8.25l-.12.33Z"/>
        <polygon class="cls-2" points="659.21 340.92 659.15 322.88 649.93 322.88 649.99 340.92 639.02 340.92 639.02 350.14 649.99 350.14 649.94 399.88 649.94 401.39 659.16 401.39 659.21 350.14 673.75 350.14 673.75 340.92 659.21 340.92"/>
      </g>
      <g>
        <path class="cls-2" d="M377.5,163.32h.04l33.7.23c.13,0,.26,0,.4,0,13.89,0,26.42-4.91,35.31-13.83,7.59-7.62,11.68-17.33,11.52-27.33-.1-6.01-3.69-10.81-9.38-12.51l-2.89-.86c-16.57-4.92-35.36-10.5-43.59-24.87-5.59-9.77-11.32-16.52-18.57-21.9-8.85-6.57-19.15-11.4-30.63-14.37-6.84-15.49-18.14-35.77-38.36-44.2l-3.88-1.62-2.26,3.55c-2.54,3.98-3.92,8.07-4.64,11.98-6.66-5.74-14.13-11.22-23.07-15.5l-4.35-2.08-2.24,4.27c-13,24.79-15.35,54.01-6.57,80.68-27.04,26.01-41.02,64.58-38.46,106.41l1.11,18.17,8.32-16.19c.69-1.33,1.34-2.67,2-3.99.02-.05.05-.09.07-.14,1.04,10.58,3.85,20.5,8.49,29.99,12.13,24.83,33.92,43.75,59.78,51.92,9.53,3.01,19.26,4.47,28.89,4.47,25.68,0,50.66-10.42,69.28-29.81,16.89-17.59,26.45-40.24,26.92-63.78.06-2.9-1-5.61-2.97-7.62-1.94-1.98-4.66-3.12-7.46-3.12h-.01c-5.68,0-9.99,4.4-10.24,10.45-.44,10.53-3.13,20.84-7.75,30.25l-5.9-.98c-7.27-1.21-13.38-2.63-19.53-5.6-6.63-3.2-11.67-9.01-13.83-15.93-2.05-6.6-1.32-13.51,2.08-19.46,1.76-3.09,5.09-6.68,8.68-6.68ZM364.48,167.52c-8.79,15.42-1.95,34.71,13.92,42.37,6.66,3.21,13.31,4.76,20.88,6.03-9.7,19.41-26.79,32.63-47.72,35.23-1.2.15-2.41.27-3.63.35-1.18.08-2.17.63-2.96.6-2.04,3.12-10.04,5.54-11.66,7.46,3.39.24,6.75.26,10.07.06,40.06-2.39,73.63-35.99,75.37-77.69.14-3.37,2.24-5.65,5.25-5.66,2.94,0,5.51,2.3,5.44,5.63-.45,22.81-9.84,44.08-25.52,60.41-24.02,25.01-59.83,34.53-93.07,24.03-24.85-7.84-45.37-25.95-56.8-49.34-6.91-14.15-9.37-28.88-8.14-45.1-5.22,5.82-7.93,12.48-11.36,19.14-2.39-39,9.88-77.97,39.26-104.67-9.53-26.14-7.64-55.28,5.21-79.79,11.52,5.51,20.44,13.03,29.51,21.65-.18-7.02.67-13.81,4.58-19.96,18.25,7.61,29.27,26.52,36.68,43.85,11.47,2.66,21.96,7.22,31.25,14.11,7.52,5.58,12.61,12.34,17.22,20.38,9.75,17.02,31.7,22.74,49.39,28.03,3.62,1.09,5.75,3.91,5.81,7.8.15,9.05-3.64,17.28-10.06,23.72-8.52,8.55-20.04,12.44-32.13,12.36l-33.7-.23c-5.61-.04-10.36,4.4-13.1,9.21Z"/>
        <path class="cls-3" d="M305.5,242.19c-12.71-8.26-22.33-20.83-24.55-36.4,10.04,11.3,9.61,13.2,21.88,21.86,9.68,6.83,20.81,11.09,32.67,12.67,14.1,1.89,30.57-1.67,40.98-11.88,1.85-1.81,3.85-3.03,5.37-5.86-23.56-7.89-37.31-28.63-29.78-53.86-4.25,2.51-6.65,6.25-9.13,10.02-5.32,8.07-8.44,17.62-6.88,27.23,1.34,8.21,6.16,14.93,13.68,17.88,3.84,1.5,7.3,1.88,11.74,2.56-15.61,5.51-34.33-.87-46.22-11.83-10.73-9.9-17.15-22.67-17.57-37.79-4.78,3.04-7.01,7.3-10.82,11.32-3.74-8.53-5.77-17.95-4.91-27.42,1.53-16.89,12.22-32.25,28.55-38.38-10.57,9.64-17.28,21.5-18.85,34.92-.29,2.52-.43,5.08-.35,7.7,0,0,0,.01,0,.02.02.6.31,1.29.49,1.6.3.53,1.39.38,1.93-.13,1.73-1.67,4.26-3.79,7-5.83,4.08-3.04,8.65-5.88,11.83-6.71.31-.71,1.49-1.09,1.12-2.41-5.53.48-10.25,2.39-15.5,4.79-.33.15-.65.29-.98.45,2.82-7.49,7.57-13.28,13.58-18.2,11.69-9.57,26.23-14.54,41.34-15.17,28.99-1.21,45.02,12.32,67.57,13.56,6.02.33,9.88-1.12,14.11-2.28,1.55-.42,3.16-.81,4.94-1.05-.56-1.59-1.2-3.16-1.78-4.77-.84-2.35-1.54-4.77-1.57-7.48l-12.39-4c-10.38-3.35-26.7-15.76-31.68-25.74-3.88-7.78-8.38-14.06-15.39-19.19-6.35-4.65-12.84-8.18-20.58-10.38-7.26-2.06-14.35-4.35-22.11-4.67-.45,3.54,5.05,9.94,5.41,14.17l-29.85-28.86-8.54-7.85c-1.1-1.01-15.76-14.34-16.8-11.53-8.32,22.37-8.71,45.84,2.37,67.48-19.57,16.42-33.82,41.53-38.38,66,5.5-4.44,10.12-8.53,16.51-10.68-4.62,12.12-7.71,24.09-7.22,36.94.85,22.36,11.8,42.51,28.67,56.9,13.55,11.56,30.36,18.37,47.91,19.63,1.62-1.91,9.62-4.33,11.66-7.46-7.25-.28-14.58-.44-21.84-2.45-6.31-1.75-12.18-3.92-17.64-7.47ZM372.53,103.95c-2.4-1.37-3.52-3.98-5.49-5.71-2.27-1.99-5.65-1.04-8.66-2.34,6.48-5.44,16.82-6.05,22.12,1.24,2.1,2.89,3.84,5.66,5.85,9.02-6.19-1.15-9.5.25-13.82-2.22ZM314.77,73.5c-3.97,5.36-9.49,8.83-15.42,10.98-10.46-10.33-14.77-29.97-10.79-44.42,4.66,11.03,10.84,20.25,19.88,27.57l6.32,5.86Z"/>
        <path class="cls-4" d="M411.27,158.54c12.09.08,23.61-3.81,32.13-12.36,6.42-6.44,10.21-14.67,10.06-23.72-.06-3.89-2.19-6.72-5.81-7.8-17.69-5.3-39.64-11.01-49.39-28.03-4.6-8.03-9.7-14.79-17.22-20.38-9.29-6.9-19.78-11.45-31.25-14.11-7.42-17.33-18.44-36.24-36.68-43.85-3.91,6.14-4.76,12.93-4.58,19.96-9.07-8.62-17.99-16.14-29.51-21.65-12.85,24.51-14.75,53.65-5.21,79.79-29.38,26.7-41.65,65.67-39.26,104.67,3.43-6.66,6.14-13.32,11.36-19.14-1.23,16.22,1.23,30.95,8.14,45.1,11.43,23.39,31.95,41.5,56.8,49.34,33.24,10.49,69.04.98,93.07-24.03,15.68-16.33,25.07-37.6,25.52-60.41.07-3.34-2.5-5.64-5.44-5.63-3.01,0-5.11,2.28-5.25,5.66-1.74,41.7-35.31,75.3-75.37,77.69-3.32.2-6.68.18-10.07-.06-17.55-1.26-34.36-8.07-47.91-19.63-16.87-14.4-27.83-34.54-28.67-56.9-.49-12.86,2.6-24.83,7.22-36.94-6.39,2.15-11.02,6.24-16.51,10.68,4.57-24.47,18.82-49.57,38.38-66-11.08-21.64-10.69-45.11-2.37-67.48,1.04-2.81,15.7,10.52,16.8,11.53l8.54,7.85,29.85,28.86c-.36-4.23-5.86-10.63-5.41-14.17,7.76.32,14.85,2.61,22.11,4.67,7.73,2.19,14.22,5.72,20.58,10.38,7.01,5.13,11.51,11.41,15.39,19.19,4.98,9.98,21.29,22.39,31.68,25.74l12.39,4c.04,2.71.73,5.13,1.57,7.48.58,1.61,1.22,3.18,1.78,4.77.5,1.42.85,2.28-.66,4.03-.42.49-.86.96-1.31,1.42-7.38,7.61-17.99,11.14-28.85,11.05l-29.72-.25c-11.49-.1-22.17,3.6-31.5,10.09-16.09,11.2-24.15,30.22-20.9,49.82-9.16-6.31-14.6-15.56-16.92-25.88-1.81-8.02-1.05-15.97,1.28-23.52.68-2.19,1.48-4.35,2.4-6.47-3.18.82-7.74,3.67-11.83,6.71-2.74,2.04-5.26,4.16-7,5.83-.54.51-1.63.66-1.93.13-.18-.31-.48-1-.49-1.6,0,0,0-.01,0-.02-.08-2.62.05-5.19.35-7.7,1.57-13.42,8.28-25.28,18.85-34.92-16.33,6.13-27.02,21.49-28.55,38.38-.86,9.47,1.17,18.9,4.91,27.42,3.81-4.02,6.04-8.28,10.82-11.32.43,15.11,6.84,27.89,17.57,37.79,11.89,10.97,30.61,17.34,46.22,11.83-4.44-.68-7.9-1.06-11.74-2.56-7.52-2.95-12.35-9.67-13.68-17.88-1.56-9.62,1.56-19.16,6.88-27.23,2.49-3.77,4.89-7.51,9.13-10.02-7.53,25.23,6.21,45.97,29.78,53.86-1.52,2.83-3.52,4.05-5.37,5.86-10.4,10.21-26.88,13.77-40.98,11.88-11.86-1.59-22.99-5.84-32.67-12.67-12.27-8.66-11.84-10.56-21.88-21.86,2.22,15.57,11.84,28.14,24.55,36.4,5.45,3.54,11.33,5.72,17.64,7.47,7.26,2.01,14.58,2.17,21.84,2.45.79.03,1.78-.53,2.96-.6,1.22-.08,2.43-.2,3.63-.35,20.93-2.6,38.02-15.82,47.72-35.23-7.58-1.26-14.22-2.81-20.88-6.03-15.87-7.66-22.71-26.94-13.92-42.37,2.74-4.8,7.48-9.24,13.1-9.21l33.7.23Z"/>
        <path class="cls-2" d="M419.68,136.9c-22.55-1.24-38.58-14.77-67.57-13.56-15.11.63-29.64,5.6-41.34,15.17-6.01,4.92-10.76,10.7-13.58,18.2.33-.15.65-.3.98-.45,5.25-2.4,9.97-4.31,15.5-4.79.36,1.32-.81,1.7-1.12,2.41-.92,2.12-1.73,4.28-2.4,6.47-2.33,7.55-3.09,15.5-1.28,23.52,2.32,10.32,7.76,19.57,16.92,25.88-3.25-19.6,4.81-38.62,20.9-49.82,9.33-6.49,20-10.19,31.5-10.09l29.72.25c10.86.09,21.47-3.44,28.85-11.05.45-.46.89-.93,1.31-1.42,1.51-1.75,1.16-2.61.66-4.03-1.78.24-3.38.63-4.94,1.05-4.23,1.15-8.09,2.61-14.11,2.28Z"/>
        <path class="cls-4" d="M288.56,40.06c-3.98,14.45.33,34.09,10.79,44.42,5.93-2.15,11.45-5.62,15.42-10.98l-6.32-5.86c-9.05-7.32-15.23-16.54-19.88-27.57Z"/>
        <path class="cls-4" d="M380.5,97.15c-5.3-7.29-15.65-6.68-22.12-1.24,3.01,1.3,6.39.35,8.66,2.34,1.98,1.73,3.09,4.34,5.49,5.71,4.32,2.47,7.64,1.07,13.82,2.22-2.01-3.36-3.75-6.14-5.85-9.02Z"/>
      </g>
    </g>
  </g>
</svg>